<svg width="97" height="81" viewBox="0 0 97 81" fill="none" xmlns="http://www.w3.org/2000/svg">
<g clip-path="url(#clip0_1_17)">
<path d="M95.1364 20.8273H80.6256C80.3757 20.8273 80.1257 20.8834 79.9041 20.9955L77.0179 22.4293H52.2685C50.3497 17.7353 45.7141 14.419 40.3127 14.419C33.2022 14.419 27.4137 20.1704 27.4137 27.2355V33.6437H12.903C12.5562 33.6437 12.2136 33.7558 11.9355 33.9641L5.48604 38.7703C5.08295 39.0746 4.84109 39.5473 4.84109 40.0519V51.2669C4.84109 51.6594 4.9862 52.0358 5.24822 52.3323L6.46557 53.694C2.57174 56.2813 0 60.691 0 65.6851C0 73.6353 6.50994 80.1031 14.5108 80.1031C21.968 80.1031 28.1269 74.4878 28.9297 67.2866H51.6886C52.4949 74.4878 58.65 80.1031 66.1076 80.1031C74.1089 80.1031 80.6184 73.6348 80.6184 65.6851C80.6184 60.6906 78.0466 56.281 74.1528 53.694L75.3701 52.3323C75.6321 52.0398 75.7772 51.6594 75.7772 51.2669V40.0519C75.7772 39.5473 75.5355 39.0746 75.1323 38.7703L68.6828 33.9641C68.4047 33.7558 68.0621 33.6437 67.7154 33.6437H53.2046V27.2355C53.2046 26.6907 53.1644 26.1581 53.0999 25.6334H75.7783V27.2355H56.4299C55.539 27.2355 54.8175 27.9524 54.8175 28.8376C54.8175 29.7226 55.539 30.4396 56.4299 30.4396H77.0114L79.8976 31.8734C80.1232 31.9855 80.3691 32.0416 80.6191 32.0416H95.1299C96.0207 32.0416 96.7422 31.3247 96.7422 30.4395V22.4292C96.7422 21.5441 96.0207 20.8272 95.1299 20.8272L95.1364 20.8273ZM45.1525 18.9168V19.2252C45.1525 21.8766 42.9838 24.0314 40.3154 24.0314C37.651 24.0314 35.4783 21.8766 35.4783 19.2252V18.9168C36.9052 18.0957 38.5539 17.6232 40.3154 17.6232C42.0768 17.6232 43.7255 18.0957 45.1525 18.9168ZM14.517 76.8995C8.29328 76.8995 3.22988 71.8691 3.22988 65.6846C3.22988 59.5 8.29266 54.4696 14.517 54.4696C20.7413 54.4696 25.8041 59.5 25.8041 65.6846C25.8041 71.8691 20.7413 76.8995 14.517 76.8995ZM77.3998 65.6846C77.3998 71.8684 72.337 76.8995 66.1127 76.8995C59.8884 76.8995 54.8256 71.8691 54.8256 65.6846C54.8256 59.5 59.8884 54.4696 66.1127 54.4696C72.337 54.4696 77.3998 59.5 77.3998 65.6846ZM66.1127 51.2666C58.6555 51.2666 52.4966 56.8818 51.6938 64.083H28.9349C28.1287 56.8818 21.9735 51.2666 14.5159 51.2666C12.7302 51.2666 11.0171 51.591 9.42891 52.1797L8.06647 50.6537V46.4563H72.5612V50.6537L71.1987 52.1797C69.6145 51.587 67.9025 51.2666 66.1127 51.2666ZM72.5622 40.8534V43.2566H64.5004V41.6545C64.5004 40.7694 63.7788 40.0525 62.888 40.0525C61.9971 40.0525 61.2756 40.7694 61.2756 41.6545V43.2566H53.2138V41.6545C53.2138 40.7694 52.4923 40.0525 51.6014 40.0525C50.7106 40.0525 49.9891 40.7694 49.9891 41.6545V43.2566H41.9272V41.6545C41.9272 40.7694 41.2057 40.0525 40.3149 40.0525C39.424 40.0525 38.7025 40.7694 38.7025 41.6545V43.2566H30.6407V41.6545C30.6407 40.7694 29.9191 40.0525 29.0283 40.0525C28.1374 40.0525 27.4159 40.7694 27.4159 41.6545V43.2566H19.3541V41.6545C19.3541 40.7694 18.6326 40.0525 17.7417 40.0525C16.8509 40.0525 16.1293 40.7694 16.1293 41.6545V43.2566H8.0675V40.8534L13.4447 36.8483H67.193L72.5702 40.8534H72.5622ZM30.6407 33.6442V27.236C30.6407 25.0732 31.3622 23.0787 32.5755 21.4726C33.555 24.7969 36.6548 27.236 40.3149 27.236C43.975 27.236 47.0707 24.8009 48.0542 21.4726C49.2716 23.0787 49.9891 25.0732 49.9891 27.236V33.6442H30.6407ZM93.5235 28.8381H81.0033L79.012 27.8488V25.0212L81.0033 24.0319H93.5235V28.8381Z" fill="#101828"/>
<path d="M16.1309 3.20411V30.4386C16.1309 31.3237 16.8524 32.0406 17.7433 32.0406C18.6341 32.0406 19.3556 31.3237 19.3556 30.4386V3.20411C20.2465 3.20411 20.968 2.48719 20.968 1.60206C20.968 0.716922 20.2465 0 19.3556 0H16.1309C15.24 0 14.5185 0.716922 14.5185 1.60206C14.5185 2.48719 15.24 3.20411 16.1309 3.20411Z" fill="#101828"/>
</g>
<defs>
<clipPath id="clip0_1_17">
<rect width="97" height="81" fill="white"/>
</clipPath>
</defs>
</svg>
